<?xml version="1.0" encoding="UTF-8" standalone="no"?>
<svg width="55px" height="55px" viewBox="0 0 55 55" version="1.1" xmlns="http://www.w3.org/2000/svg" xmlns:xlink="http://www.w3.org/1999/xlink">
    <!-- Generator: Sketch 3.8.3 (29802) - http://www.bohemiancoding.com/sketch -->
    <title>Artboard 12 Copy</title>
    <desc>Created with Sketch.</desc>
    <defs></defs>
    <g id="Page-1" stroke="none" stroke-width="1" fill="none" fill-rule="evenodd">
        <g id="Artboard-12-Copy" fill="#DEDBD8">
            <g id="Ebene_1-Copy" transform="translate(17.000000, 17.000000)">
                <path d="M16.1,0 C12.3363636,0 9.2,2.9 9.2,6.6 C9.2,10.3 12.2318182,13.2 16.1,13.2 C19.8636364,13.2 23,10.3 23,6.6 C23,2.9 19.8636364,0 16.1,0 M16.1,8.7 C14.8454545,8.7 13.9045455,7.8 13.9045455,6.6 C13.9045455,5.4 14.8454545,4.5 16.1,4.5 C17.3545455,4.5 18.2954545,5.4 18.2954545,6.6 C18.2954545,7.7 17.25,8.7 16.1,8.7" id="Shape"></path>
                <path d="M12.65,14 C12.5454545,14 12.5454545,14 12.65,14 C12.4409091,13.9 12.2318182,13.8 12.1272727,13.7 C9.51363636,12.3 8.46818182,10 8.15454545,9.2 C8.15454545,9.1 8.05,8.9 8.05,8.8 C4.70454545,12 0.104545455,16.4 0.104545455,16.4 C0,16.4 0,16.5 0,16.6 L0,18.7 L6.79545455,12.2 C7.00454545,12 7.42272727,12 7.63181818,12.2 C7.84090909,12.4 7.84090909,12.8 7.63181818,13 L0,20.3 C0,20.5 0.209090909,20.7 0.418181818,20.7 L3.86818182,20.7 C4.07727273,20.7 4.18181818,20.6 4.28636364,20.4 L4.70454545,18.7 C4.70454545,18.5 4.80909091,18.4 5.01818182,18.4 L7.10909091,17.7 C7.21363636,17.7 7.31818182,17.6 7.31818182,17.5 L7.63181818,16.2 C7.63181818,16 7.84090909,15.9 8.05,15.9 L11.1863636,16.1 L11.1863636,16.1 L11.1863636,16.1 C11.2909091,16.1 11.3954545,16.1 11.5,16 L13.1727273,14.4 C12.9636364,14.2 12.7545455,14.1 12.65,14" id="Shape"></path>
            </g>
        </g>
    </g>
</svg>