<?xml version="1.0" encoding="utf-8"?>
<!-- Generator: Adobe Illustrator 19.1.0, SVG Export Plug-In . SVG Version: 6.00 Build 0)  -->
<svg version="1.1" id="Ebene_1" xmlns="http://www.w3.org/2000/svg" xmlns:xlink="http://www.w3.org/1999/xlink" x="0px" y="0px"
	 viewBox="0 0 21.2 20.3" style="enable-background:new 0 0 21.2 20.3;" xml:space="preserve">
<style type="text/css">
	.st0{fill:#333333;}
</style>
<path class="st0" d="M19.5,14.1c0.5-1.2,0.8-2.5,0.8-3.9C20.3,4.5,15.8,0,10.1,0S0,4.5,0,10.1s4.5,10.1,10.1,10.2
	c2.4,0,4.6-0.8,6.4-2.2l3.7,1.4c0.2,0.1,0.4,0.1,0.5,0.1c0.5,0,0.7-0.4,0.4-1L19.5,14.1z M5.1,11.4c-0.7,0-1.3-0.6-1.3-1.3
	s0.6-1.3,1.3-1.3s1.3,0.6,1.3,1.3C6.4,10.9,5.8,11.4,5.1,11.4z M9.9,11.4c-0.7,0-1.3-0.6-1.3-1.3s0.6-1.3,1.3-1.3s1.3,0.6,1.3,1.3
	C11.2,10.9,10.6,11.4,9.9,11.4z M14.7,11.4c-0.7,0-1.3-0.6-1.3-1.3s0.6-1.3,1.3-1.3S16,9.4,16,10.1C16,10.9,15.4,11.4,14.7,11.4z"/>
</svg>
