<?xml version="1.0" encoding="utf-8"?>
<!-- Generator: Adobe Illustrator 19.1.0, SVG Export Plug-In . SVG Version: 6.00 Build 0)  -->
<svg version="1.1" id="Ebene_1" xmlns="http://www.w3.org/2000/svg" xmlns:xlink="http://www.w3.org/1999/xlink" x="0px" y="0px"
	 viewBox="0 0 22 20.7" style="enable-background:new 0 0 22 20.7;" xml:space="preserve">
<style type="text/css">
	.st0{fill:#FFFFFF;}
</style>
<path class="st0" d="M15.4,0c-3.6,0-6.6,2.9-6.6,6.6s2.9,6.6,6.6,6.6c3.6,0,6.6-2.9,6.6-6.6S19,0,15.4,0 M15.4,8.7
	c-1.2,0-2.1-0.9-2.1-2.1s0.9-2.1,2.1-2.1s2.1,0.9,2.1,2.1C17.5,7.7,16.5,8.7,15.4,8.7"/>
<path class="st0" d="M12.1,14C12,14,12,14,12.1,14c-0.2-0.1-0.4-0.2-0.5-0.3C9.1,12.3,8.1,10,7.8,9.2c0-0.1-0.1-0.3-0.1-0.4
	c-3.2,3.2-7.6,7.6-7.6,7.6C0,16.4,0,16.5,0,16.6v2.1l6.5-6.5c0.2-0.2,0.6-0.2,0.8,0c0.2,0.2,0.2,0.6,0,0.8L0,20.3
	c0,0.2,0.2,0.4,0.4,0.4h3.3c0.2,0,0.3-0.1,0.4-0.3l0.4-1.7c0-0.2,0.1-0.3,0.3-0.3l2-0.7c0.1,0,0.2-0.1,0.2-0.2l0.3-1.3
	c0-0.2,0.2-0.3,0.4-0.3l3,0.2l0,0l0,0c0.1,0,0.2,0,0.3-0.1l1.6-1.6C12.4,14.2,12.2,14.1,12.1,14"/>
</svg>
