<?xml version="1.0" encoding="UTF-8" standalone="no"?>
<!-- Created with Inkscape (http://www.inkscape.org/) -->

<svg
   xmlns:dc="http://purl.org/dc/elements/1.1/"
   xmlns:cc="http://creativecommons.org/ns#"
   xmlns:rdf="http://www.w3.org/1999/02/22-rdf-syntax-ns#"
   xmlns:svg="http://www.w3.org/2000/svg"
   xmlns="http://www.w3.org/2000/svg"
   version="1.1"
   width="154.5"
   height="23.799999"
   id="Isolationsmodus"
   xml:space="preserve"><metadata
     id="metadata35"><rdf:RDF><cc:Work
         rdf:about=""><dc:format>image/svg+xml</dc:format><dc:type
           rdf:resource="http://purl.org/dc/dcmitype/StillImage" /><dc:title></dc:title></cc:Work></rdf:RDF></metadata><defs
     id="defs33" /><style
     type="text/css"
     id="style3" /><path
     d="M 78.1,6.6 75.3,18 72.4,6.6 h -4.7 l 4.9,16.9 h 5.3 L 82.8,6.6 h -4.7 z m 8.9,6.8 c 0.3,-2.7 1.8,-3.6 3.1,-3.6 1.4,0 2.6,1 2.8,3.6 H 87 z m 3.1,10.4 c 3.1,0 5.1,-1.4 6.6,-3.5 L 94,18.1 c -0.7,1.1 -2,2.2 -3.6,2.2 -1.7,0 -3.4,-1.2 -3.4,-3.6 h 10 v -1.4 c 0,-6.5 -3.2,-9.1 -7,-9.1 -3.5,0 -7.2,2.4 -7.2,8.8 0,6.5 3.3,8.8 7.3,8.8 M 61.3,23.4 H 66 V 6.6 h -4.7 v 16.8 z m -26.1,-4 V 4.1 H 37 c 4.1,0 5.6,2.1 5.6,7.6 0,5.7 -1.5,7.8 -5.6,7.8 h -1.8 z m -4.7,4 h 6.1 c 6.2,0 10.7,-2.7 10.7,-11.8 C 47.4,2.6 42.9,0 36.6,0 h -6.1 v 23.4 z m 19.1,0 h 4.7 v -11 c 0.8,-1 2.2,-1.6 4,-1.6 0.2,0 0.9,0.1 1,0.1 0,0 0,-3.9 0,-4.3 -3.4,0 -5,1.3 -5,1.3 V 6.6 H 49.6 V 23.4 z M 61.3,0 H 66 V 4.7 H 61.3 V 0 z"
     id="path5"
     style="fill:#333233" /><path
     d="m 111.5,0 v 14 c -0.6,-1.4 -1,-2.1 -1.6,-3.4 L 104.5,0 h -5 v 23.4 h 4.7 V 9.1 c 0.5,1.2 0.9,1.8 1.5,2.9 l 6.1,11.4 h 4.5 V 0 h -4.8 z"
     id="path7"
     style="fill:#0080a6" /><path
     d="m 128.9,15 c 0,-3.2 -1.2,-5.2 -3.3,-5.2 -1.9,0 -3.3,1.8 -3.3,5.2 0,3.2 1.1,5.3 3.2,5.3 2,0 3.4,-1.8 3.4,-5.3 m -10.7,0 c 0,-6.3 3.6,-8.8 7.4,-8.8 3.8,0 7.4,2.5 7.4,8.8 0,6.3 -3.6,8.8 -7.4,8.8 -3.8,0 -7.4,-2.5 -7.4,-8.8"
     id="path9"
     style="fill:#0080a6" /><polygon
     points="133.5,6.6 137.5,23.4 142.1,23.4 144,13.4 144,13.4 144,13.4 145.9,23.4 150.6,23.4 154.5,6.6 150.5,6.6 148.2,18 146.2,6.6 146.2,6.6 141.8,6.6 141.8,6.6 139.8,18 137.5,6.6 "
     id="polygon11"
     style="fill:#0080a6" /><path
     d="M 13,0 H 3 C 1.4,0 0,1.4 0,3 V 4.8 L 8.2,7.4 13,0 z"
     id="path13"
     style="fill:#0080a6" /><polygon
     points="0,6.3 0,17.3 4.9,15.3 7.6,8.6 "
     id="polygon15"
     style="fill:#0080a6" /><path
     d="m 16.9,10 4,-10 C 20.8,0 20.6,0 20.5,0 H 14.8 L 9.7,7.8 16.9,10 z"
     id="path17"
     style="fill:#0080a6" /><polygon
     points="23.4,9.2 19.5,10.8 23.4,12 "
     id="polygon19"
     style="fill:#0080a6" /><path
     d="m 0,18.9 v 1.6 c 0,1.2 0.7,2.3 1.8,2.7 l 2.4,-6 -4.2,1.7 z"
     id="path21"
     style="fill:#0080a6" /><path
     d="M 23.4,7.6 V 3 c 0,-1 -0.5,-1.8 -1.2,-2.4 l -3.6,9 4.8,-2 z"
     id="path23"
     style="fill:#0080a6" /><path
     d="m 13.2,23.4 h 7.3 c 1.6,0 3,-1.4 3,-3 v -6.9 l -5.7,-1.8 -4.6,11.7 z"
     id="path25"
     style="fill:#0080a6" /><polygon
     points="3.3,23.4 11.6,23.4 16,12.3 6.1,16.4 "
     id="polygon27"
     style="fill:#0080a6" /><polygon
     points="15.2,11 9,9.1 6.8,14.5 "
     id="polygon29"
     style="fill:#0080a6" /></svg>