<?xml version="1.0" encoding="utf-8"?>
<!-- Generator: Adobe Illustrator 19.1.0, SVG Export Plug-In . SVG Version: 6.00 Build 0)  -->
<svg version="1.1" id="Ebene_1" xmlns="http://www.w3.org/2000/svg" xmlns:xlink="http://www.w3.org/1999/xlink" x="0px" y="0px"
	 viewBox="0 0 30.4 32.2" style="enable-background:new 0 0 30.4 32.2;" xml:space="preserve">
<style type="text/css">
	.st0{fill:#FFFFFF;}
</style>
<path class="st0" d="M30.2,30.5c-0.6-1.7-0.6-3-2.6-3.8c-2.4-1-6.3-2.2-7.6-3.5c-0.6-0.6-0.8-1.4-0.8-2.1c0-0.3,0.1-0.6,0.1-0.9
	c1.1-0.5,1.8-2.6,2-3.3c0.3-0.1,0.6-0.2,0.8-0.5c1.2-2,1.7-3.6,0.6-3.7c0,0,0.6-3.3-0.4-6.2C23.5,5.5,23,4,23,4
	c-3.2-1.6-1.4-5.2-7.6-3.6C9.2,1.9,9.5,4.2,9.5,4.2l0,0c-2.2-0.3-1.6,1-2.1,2.6C7,8.4,6.9,8.9,6.9,8.9L7.6,11l0,0
	c0,1.1,0.2,1.8,0.2,1.8c-1.1,0.1-0.6,1.7,0.6,3.7c0.2,0.3,0.5,0.4,0.8,0.5c0.2,0.7,0.9,2.9,2,3.3c0.1,0.3,0.1,0.6,0.1,0.9
	c0,0.8-0.2,1.5-0.8,2.1c-1.3,1.3-5.2,2.4-7.6,3.5C1,27.6,1,28.9,0.4,30.6L0,32.2c0,0,15.4,0,15.2,0l0,0c-0.2,0,15.2,0,15.2,0
	L30.2,30.5z"/>
</svg>
